{
	"patcher" : 	{
		"fileversion" : 1,
		"rect" : [ 61.0, 935.0, 811.0, 337.0 ],
		"bglocked" : 0,
		"defrect" : [ 61.0, 935.0, 811.0, 337.0 ],
		"openrect" : [ 0.0, 0.0, 0.0, 0.0 ],
		"openinpresentation" : 0,
		"default_fontsize" : 12.0,
		"default_fontface" : 0,
		"default_fontname" : "Arial",
		"gridonopen" : 0,
		"gridsize" : [ 15.0, 15.0 ],
		"gridsnaponopen" : 0,
		"toolbarvisible" : 1,
		"boxanimatetime" : 200,
		"imprint" : 0,
		"enablehscroll" : 1,
		"enablevscroll" : 1,
		"devicewidth" : 0.0,
		"boxes" : [ 			{
				"box" : 				{
					"maxclass" : "newobj",
					"text" : "prepend port",
					"fontsize" : 12.0,
					"numinlets" : 1,
					"numoutlets" : 1,
					"patching_rect" : [ 80.0, 96.0, 79.0, 20.0 ],
					"outlettype" : [ "" ],
					"id" : "obj-20",
					"fontname" : "Arial"
				}

			}
, 			{
				"box" : 				{
					"maxclass" : "message",
					"text" : "7E 0 4 8 1 46 52 5E",
					"fontsize" : 12.0,
					"numinlets" : 2,
					"numoutlets" : 1,
					"patching_rect" : [ 948.0, 382.0, 117.0, 18.0 ],
					"outlettype" : [ "" ],
					"id" : "obj-19",
					"fontname" : "Arial"
				}

			}
, 			{
				"box" : 				{
					"maxclass" : "message",
					"text" : "7E 0 10 10 1 0 13 A2 0 40 A2 8E 61 FF FE 1 0 73 72 85",
					"fontsize" : 12.0,
					"numinlets" : 2,
					"numoutlets" : 1,
					"patching_rect" : [ 950.0, 353.0, 308.0, 18.0 ],
					"outlettype" : [ "" ],
					"id" : "obj-91",
					"fontname" : "Arial"
				}

			}
, 			{
				"box" : 				{
					"maxclass" : "newobj",
					"text" : "p readAPIFrame",
					"fontsize" : 12.0,
					"numinlets" : 1,
					"numoutlets" : 2,
					"patching_rect" : [ 627.0, 502.0, 99.0, 20.0 ],
					"outlettype" : [ "", "" ],
					"id" : "obj-18",
					"fontname" : "Arial",
					"patcher" : 					{
						"fileversion" : 1,
						"rect" : [ 69.0, 44.0, 1197.0, 864.0 ],
						"bglocked" : 0,
						"defrect" : [ 69.0, 44.0, 1197.0, 864.0 ],
						"openrect" : [ 0.0, 0.0, 0.0, 0.0 ],
						"openinpresentation" : 0,
						"default_fontsize" : 12.0,
						"default_fontface" : 0,
						"default_fontname" : "Arial",
						"gridonopen" : 0,
						"gridsize" : [ 15.0, 15.0 ],
						"gridsnaponopen" : 0,
						"toolbarvisible" : 1,
						"boxanimatetime" : 200,
						"imprint" : 0,
						"enablehscroll" : 1,
						"enablevscroll" : 1,
						"devicewidth" : 0.0,
						"visible" : 1,
						"boxes" : [ 							{
								"box" : 								{
									"maxclass" : "message",
									"text" : "FR",
									"fontsize" : 12.0,
									"numinlets" : 2,
									"numoutlets" : 1,
									"patching_rect" : [ 910.0, 691.0, 50.0, 18.0 ],
									"outlettype" : [ "" ],
									"id" : "obj-119",
									"fontname" : "Arial"
								}

							}
, 							{
								"box" : 								{
									"maxclass" : "newobj",
									"text" : "itoa",
									"fontsize" : 12.0,
									"numinlets" : 3,
									"numoutlets" : 1,
									"patching_rect" : [ 910.0, 639.0, 46.0, 20.0 ],
									"outlettype" : [ "int" ],
									"id" : "obj-117",
									"fontname" : "Arial"
								}

							}
, 							{
								"box" : 								{
									"maxclass" : "newobj",
									"text" : "r doneATcmd",
									"fontsize" : 12.0,
									"numinlets" : 0,
									"numoutlets" : 1,
									"patching_rect" : [ 910.0, 588.0, 80.0, 20.0 ],
									"outlettype" : [ "" ],
									"id" : "obj-113",
									"fontname" : "Arial"
								}

							}
, 							{
								"box" : 								{
									"maxclass" : "newobj",
									"text" : "s doneATcmd",
									"fontsize" : 12.0,
									"numinlets" : 1,
									"numoutlets" : 0,
									"patching_rect" : [ 638.0, 376.0, 82.0, 20.0 ],
									"id" : "obj-112",
									"fontname" : "Arial"
								}

							}
, 							{
								"box" : 								{
									"maxclass" : "message",
									"text" : "0",
									"fontsize" : 12.0,
									"numinlets" : 2,
									"numoutlets" : 1,
									"patching_rect" : [ 905.0, 536.0, 50.0, 18.0 ],
									"outlettype" : [ "" ],
									"id" : "obj-108",
									"fontname" : "Arial"
								}

							}
, 							{
								"box" : 								{
									"maxclass" : "message",
									"text" : "0",
									"fontsize" : 12.0,
									"numinlets" : 2,
									"numoutlets" : 1,
									"patching_rect" : [ 980.0, 468.0, 50.0, 18.0 ],
									"outlettype" : [ "" ],
									"id" : "obj-105",
									"fontname" : "Arial"
								}

							}
, 							{
								"box" : 								{
									"maxclass" : "newobj",
									"text" : "s gotFrameID",
									"fontsize" : 12.0,
									"numinlets" : 1,
									"numoutlets" : 0,
									"patching_rect" : [ 613.0, 424.0, 83.0, 20.0 ],
									"id" : "obj-103",
									"fontname" : "Arial"
								}

							}
, 							{
								"box" : 								{
									"maxclass" : "comment",
									"text" : "status",
									"fontsize" : 12.0,
									"numinlets" : 1,
									"numoutlets" : 0,
									"patching_rect" : [ 787.0, 375.0, 46.0, 20.0 ],
									"id" : "obj-97",
									"fontname" : "Arial"
								}

							}
, 							{
								"box" : 								{
									"maxclass" : "comment",
									"text" : "AT command",
									"fontsize" : 12.0,
									"numinlets" : 1,
									"numoutlets" : 0,
									"patching_rect" : [ 749.0, 348.0, 144.0, 20.0 ],
									"id" : "obj-98",
									"fontname" : "Arial"
								}

							}
, 							{
								"box" : 								{
									"maxclass" : "comment",
									"text" : "frame ID",
									"fontsize" : 12.0,
									"numinlets" : 1,
									"numoutlets" : 0,
									"patching_rect" : [ 749.0, 319.0, 57.0, 20.0 ],
									"id" : "obj-99",
									"fontname" : "Arial"
								}

							}
, 							{
								"box" : 								{
									"maxclass" : "newobj",
									"text" : "zl slice 1",
									"fontsize" : 12.0,
									"numinlets" : 2,
									"numoutlets" : 2,
									"patching_rect" : [ 725.0, 376.0, 57.0, 20.0 ],
									"outlettype" : [ "", "" ],
									"id" : "obj-100",
									"fontname" : "Arial"
								}

							}
, 							{
								"box" : 								{
									"maxclass" : "newobj",
									"text" : "zl slice 2",
									"fontsize" : 12.0,
									"numinlets" : 2,
									"numoutlets" : 2,
									"patching_rect" : [ 687.0, 348.0, 57.0, 20.0 ],
									"outlettype" : [ "", "" ],
									"id" : "obj-101",
									"fontname" : "Arial"
								}

							}
, 							{
								"box" : 								{
									"maxclass" : "newobj",
									"text" : "zl slice 1",
									"fontsize" : 12.0,
									"numinlets" : 2,
									"numoutlets" : 2,
									"patching_rect" : [ 687.0, 319.0, 57.0, 20.0 ],
									"outlettype" : [ "", "" ],
									"id" : "obj-102",
									"fontname" : "Arial"
								}

							}
, 							{
								"box" : 								{
									"maxclass" : "comment",
									"text" : "combine both check results",
									"fontsize" : 12.0,
									"numinlets" : 1,
									"numoutlets" : 0,
									"patching_rect" : [ 615.0, 629.0, 176.0, 20.0 ],
									"id" : "obj-96",
									"fontname" : "Arial"
								}

							}
, 							{
								"box" : 								{
									"maxclass" : "comment",
									"text" : "check frameID",
									"fontsize" : 12.0,
									"numinlets" : 1,
									"numoutlets" : 0,
									"patching_rect" : [ 438.0, 543.0, 150.0, 20.0 ],
									"id" : "obj-95",
									"fontname" : "Arial"
								}

							}
, 							{
								"box" : 								{
									"maxclass" : "comment",
									"text" : "check command status",
									"fontsize" : 12.0,
									"numinlets" : 1,
									"numoutlets" : 0,
									"patching_rect" : [ 693.0, 527.0, 150.0, 20.0 ],
									"id" : "obj-94",
									"fontname" : "Arial"
								}

							}
, 							{
								"box" : 								{
									"maxclass" : "newobj",
									"text" : "r gotFrameID",
									"fontsize" : 12.0,
									"numinlets" : 0,
									"numoutlets" : 1,
									"patching_rect" : [ 320.0, 482.0, 81.0, 20.0 ],
									"outlettype" : [ "" ],
									"id" : "obj-92",
									"fontname" : "Arial"
								}

							}
, 							{
								"box" : 								{
									"maxclass" : "newobj",
									"text" : "s gotFrameID",
									"fontsize" : 12.0,
									"numinlets" : 1,
									"numoutlets" : 0,
									"patching_rect" : [ 380.0, 424.0, 83.0, 20.0 ],
									"id" : "obj-91",
									"fontname" : "Arial"
								}

							}
, 							{
								"box" : 								{
									"maxclass" : "message",
									"text" : "127",
									"fontsize" : 12.0,
									"numinlets" : 2,
									"numoutlets" : 1,
									"patching_rect" : [ 372.0, 619.0, 50.0, 18.0 ],
									"outlettype" : [ "" ],
									"id" : "obj-90",
									"fontname" : "Arial"
								}

							}
, 							{
								"box" : 								{
									"maxclass" : "message",
									"text" : "127",
									"fontsize" : 12.0,
									"numinlets" : 2,
									"numoutlets" : 1,
									"patching_rect" : [ 433.0, 619.0, 50.0, 18.0 ],
									"outlettype" : [ "" ],
									"id" : "obj-89",
									"fontname" : "Arial"
								}

							}
, 							{
								"box" : 								{
									"maxclass" : "button",
									"numinlets" : 1,
									"numoutlets" : 1,
									"patching_rect" : [ 526.0, 202.0, 20.0, 20.0 ],
									"outlettype" : [ "bang" ],
									"id" : "obj-87"
								}

							}
, 							{
								"box" : 								{
									"maxclass" : "comment",
									"text" : "status",
									"fontsize" : 12.0,
									"numinlets" : 1,
									"numoutlets" : 0,
									"patching_rect" : [ 537.0, 376.0, 46.0, 20.0 ],
									"id" : "obj-85",
									"fontname" : "Arial"
								}

							}
, 							{
								"box" : 								{
									"maxclass" : "comment",
									"text" : "address & retry attempts",
									"fontsize" : 12.0,
									"numinlets" : 1,
									"numoutlets" : 0,
									"patching_rect" : [ 537.0, 348.0, 144.0, 20.0 ],
									"id" : "obj-84",
									"fontname" : "Arial"
								}

							}
, 							{
								"box" : 								{
									"maxclass" : "comment",
									"text" : "frame ID",
									"fontsize" : 12.0,
									"numinlets" : 1,
									"numoutlets" : 0,
									"patching_rect" : [ 537.0, 319.0, 57.0, 20.0 ],
									"id" : "obj-83",
									"fontname" : "Arial"
								}

							}
, 							{
								"box" : 								{
									"maxclass" : "newobj",
									"text" : "sel 1",
									"fontsize" : 12.0,
									"numinlets" : 2,
									"numoutlets" : 2,
									"patching_rect" : [ 578.0, 662.0, 36.0, 20.0 ],
									"outlettype" : [ "bang", "" ],
									"id" : "obj-79",
									"fontname" : "Arial"
								}

							}
, 							{
								"box" : 								{
									"maxclass" : "message",
									"text" : "0",
									"fontsize" : 12.0,
									"numinlets" : 2,
									"numoutlets" : 1,
									"patching_rect" : [ 683.0, 557.0, 32.5, 18.0 ],
									"outlettype" : [ "" ],
									"id" : "obj-78",
									"fontname" : "Arial"
								}

							}
, 							{
								"box" : 								{
									"maxclass" : "message",
									"text" : "1",
									"fontsize" : 12.0,
									"numinlets" : 2,
									"numoutlets" : 1,
									"patching_rect" : [ 647.0, 557.0, 32.5, 18.0 ],
									"outlettype" : [ "" ],
									"id" : "obj-77",
									"fontname" : "Arial"
								}

							}
, 							{
								"box" : 								{
									"maxclass" : "newobj",
									"text" : "==",
									"fontsize" : 12.0,
									"numinlets" : 2,
									"numoutlets" : 1,
									"patching_rect" : [ 578.0, 630.0, 32.5, 20.0 ],
									"outlettype" : [ "int" ],
									"id" : "obj-71",
									"fontname" : "Arial"
								}

							}
, 							{
								"box" : 								{
									"maxclass" : "newobj",
									"text" : "sprintf 0x%s",
									"fontsize" : 12.0,
									"numinlets" : 1,
									"numoutlets" : 1,
									"patching_rect" : [ 408.0, 513.0, 76.0, 20.0 ],
									"outlettype" : [ "" ],
									"id" : "obj-61",
									"fontname" : "Arial"
								}

							}
, 							{
								"box" : 								{
									"maxclass" : "newobj",
									"text" : "==",
									"fontsize" : 12.0,
									"numinlets" : 2,
									"numoutlets" : 1,
									"patching_rect" : [ 394.0, 543.0, 32.5, 20.0 ],
									"outlettype" : [ "int" ],
									"id" : "obj-59",
									"fontname" : "Arial"
								}

							}
, 							{
								"box" : 								{
									"maxclass" : "newobj",
									"text" : "delay 5",
									"fontsize" : 12.0,
									"numinlets" : 2,
									"numoutlets" : 1,
									"patching_rect" : [ 21.0, 131.0, 49.0, 20.0 ],
									"outlettype" : [ "bang" ],
									"id" : "obj-57",
									"fontname" : "Arial"
								}

							}
, 							{
								"box" : 								{
									"maxclass" : "newobj",
									"text" : "sprintf %X",
									"fontsize" : 12.0,
									"numinlets" : 1,
									"numoutlets" : 1,
									"patching_rect" : [ 647.0, 500.0, 65.0, 20.0 ],
									"outlettype" : [ "" ],
									"id" : "obj-56",
									"fontname" : "Arial"
								}

							}
, 							{
								"box" : 								{
									"maxclass" : "message",
									"text" : "OK",
									"fontsize" : 12.0,
									"numinlets" : 2,
									"numoutlets" : 1,
									"patching_rect" : [ 665.0, 820.0, 50.0, 18.0 ],
									"outlettype" : [ "" ],
									"id" : "obj-55",
									"fontname" : "Arial"
								}

							}
, 							{
								"box" : 								{
									"maxclass" : "outlet",
									"numinlets" : 1,
									"numoutlets" : 0,
									"patching_rect" : [ 604.0, 820.0, 25.0, 25.0 ],
									"id" : "obj-53",
									"comment" : ""
								}

							}
, 							{
								"box" : 								{
									"maxclass" : "message",
									"text" : "ERR",
									"fontsize" : 12.0,
									"numinlets" : 2,
									"numoutlets" : 1,
									"patching_rect" : [ 619.0, 697.0, 36.0, 18.0 ],
									"outlettype" : [ "" ],
									"id" : "obj-52",
									"fontname" : "Arial"
								}

							}
, 							{
								"box" : 								{
									"maxclass" : "outlet",
									"numinlets" : 1,
									"numoutlets" : 0,
									"patching_rect" : [ 561.0, 820.0, 25.0, 25.0 ],
									"id" : "obj-50",
									"comment" : ""
								}

							}
, 							{
								"box" : 								{
									"maxclass" : "message",
									"text" : "OK",
									"fontsize" : 12.0,
									"numinlets" : 2,
									"numoutlets" : 1,
									"patching_rect" : [ 578.0, 697.0, 32.5, 18.0 ],
									"outlettype" : [ "" ],
									"id" : "obj-49",
									"fontname" : "Arial"
								}

							}
, 							{
								"box" : 								{
									"maxclass" : "newobj",
									"text" : "sel 0",
									"fontsize" : 12.0,
									"numinlets" : 2,
									"numoutlets" : 2,
									"patching_rect" : [ 647.0, 528.0, 36.0, 20.0 ],
									"outlettype" : [ "bang", "" ],
									"id" : "obj-47",
									"fontname" : "Arial"
								}

							}
, 							{
								"box" : 								{
									"maxclass" : "newobj",
									"text" : "zl slice 1",
									"fontsize" : 12.0,
									"numinlets" : 2,
									"numoutlets" : 2,
									"patching_rect" : [ 478.0, 376.0, 57.0, 20.0 ],
									"outlettype" : [ "", "" ],
									"id" : "obj-40",
									"fontname" : "Arial"
								}

							}
, 							{
								"box" : 								{
									"maxclass" : "newobj",
									"text" : "zl slice 3",
									"fontsize" : 12.0,
									"numinlets" : 2,
									"numoutlets" : 2,
									"patching_rect" : [ 478.0, 348.0, 57.0, 20.0 ],
									"outlettype" : [ "", "" ],
									"id" : "obj-39",
									"fontname" : "Arial"
								}

							}
, 							{
								"box" : 								{
									"maxclass" : "newobj",
									"text" : "zl slice 1",
									"fontsize" : 12.0,
									"numinlets" : 2,
									"numoutlets" : 2,
									"patching_rect" : [ 478.0, 319.0, 57.0, 20.0 ],
									"outlettype" : [ "", "" ],
									"id" : "obj-36",
									"fontname" : "Arial"
								}

							}
, 							{
								"box" : 								{
									"maxclass" : "newobj",
									"text" : "r setFrameID",
									"fontsize" : 12.0,
									"numinlets" : 0,
									"numoutlets" : 1,
									"patching_rect" : [ 408.0, 482.0, 81.0, 20.0 ],
									"outlettype" : [ "" ],
									"id" : "obj-34",
									"fontname" : "Arial"
								}

							}
, 							{
								"box" : 								{
									"maxclass" : "comment",
									"text" : "from serial",
									"fontsize" : 12.0,
									"numinlets" : 1,
									"numoutlets" : 0,
									"patching_rect" : [ 94.0, 32.0, 150.0, 20.0 ],
									"id" : "obj-29",
									"fontname" : "Arial"
								}

							}
, 							{
								"box" : 								{
									"maxclass" : "newobj",
									"text" : "sprintf %X",
									"fontsize" : 12.0,
									"numinlets" : 1,
									"numoutlets" : 1,
									"patching_rect" : [ 162.0, 434.0, 65.0, 20.0 ],
									"outlettype" : [ "" ],
									"id" : "obj-4",
									"fontname" : "Arial"
								}

							}
, 							{
								"box" : 								{
									"maxclass" : "inlet",
									"numinlets" : 0,
									"numoutlets" : 1,
									"patching_rect" : [ 65.0, 32.0, 25.0, 25.0 ],
									"outlettype" : [ "int" ],
									"id" : "obj-1",
									"comment" : ""
								}

							}
, 							{
								"box" : 								{
									"maxclass" : "button",
									"numinlets" : 1,
									"numoutlets" : 1,
									"patching_rect" : [ 776.0, 210.0, 20.0, 20.0 ],
									"outlettype" : [ "bang" ],
									"id" : "obj-30"
								}

							}
, 							{
								"box" : 								{
									"maxclass" : "button",
									"numinlets" : 1,
									"numoutlets" : 1,
									"patching_rect" : [ 726.0, 210.0, 20.0, 20.0 ],
									"outlettype" : [ "bang" ],
									"id" : "obj-28"
								}

							}
, 							{
								"box" : 								{
									"maxclass" : "button",
									"numinlets" : 1,
									"numoutlets" : 1,
									"patching_rect" : [ 845.0, 210.0, 20.0, 20.0 ],
									"outlettype" : [ "bang" ],
									"id" : "obj-26"
								}

							}
, 							{
								"box" : 								{
									"maxclass" : "newobj",
									"text" : "r 8Ax",
									"fontsize" : 12.0,
									"numinlets" : 0,
									"numoutlets" : 1,
									"patching_rect" : [ 776.0, 116.0, 39.0, 20.0 ],
									"outlettype" : [ "" ],
									"id" : "obj-22",
									"fontname" : "Arial"
								}

							}
, 							{
								"box" : 								{
									"maxclass" : "newobj",
									"text" : "r 88x",
									"fontsize" : 12.0,
									"numinlets" : 0,
									"numoutlets" : 1,
									"patching_rect" : [ 687.0, 155.0, 37.0, 20.0 ],
									"outlettype" : [ "" ],
									"id" : "obj-21",
									"fontname" : "Arial"
								}

							}
, 							{
								"box" : 								{
									"maxclass" : "newobj",
									"text" : "r 97x",
									"fontsize" : 12.0,
									"numinlets" : 0,
									"numoutlets" : 1,
									"patching_rect" : [ 845.0, 116.0, 37.0, 20.0 ],
									"outlettype" : [ "" ],
									"id" : "obj-20",
									"fontname" : "Arial"
								}

							}
, 							{
								"box" : 								{
									"maxclass" : "newobj",
									"text" : "r 8Bx",
									"fontsize" : 12.0,
									"numinlets" : 0,
									"numoutlets" : 1,
									"patching_rect" : [ 478.0, 151.0, 39.0, 20.0 ],
									"outlettype" : [ "" ],
									"id" : "obj-19",
									"fontname" : "Arial"
								}

							}
, 							{
								"box" : 								{
									"maxclass" : "comment",
									"text" : "use frameType value\nto route for futher execution",
									"linecount" : 2,
									"fontsize" : 12.0,
									"numinlets" : 1,
									"numoutlets" : 0,
									"patching_rect" : [ 162.0, 531.0, 188.0, 34.0 ],
									"id" : "obj-18",
									"fontname" : "Arial"
								}

							}
, 							{
								"box" : 								{
									"maxclass" : "message",
									"text" : "send $1x",
									"fontsize" : 12.0,
									"numinlets" : 2,
									"numoutlets" : 1,
									"patching_rect" : [ 213.0, 469.0, 59.0, 18.0 ],
									"outlettype" : [ "" ],
									"id" : "obj-7",
									"fontname" : "Arial"
								}

							}
, 							{
								"box" : 								{
									"maxclass" : "newobj",
									"text" : "forward",
									"fontsize" : 12.0,
									"numinlets" : 1,
									"numoutlets" : 0,
									"patching_rect" : [ 162.0, 502.0, 60.0, 20.0 ],
									"id" : "obj-8",
									"fontname" : "Arial"
								}

							}
, 							{
								"box" : 								{
									"maxclass" : "newobj",
									"text" : "t b i",
									"fontsize" : 12.0,
									"numinlets" : 1,
									"numoutlets" : 2,
									"patching_rect" : [ 162.0, 371.0, 33.0, 20.0 ],
									"outlettype" : [ "bang", "int" ],
									"id" : "obj-9",
									"fontname" : "Arial"
								}

							}
, 							{
								"box" : 								{
									"maxclass" : "newobj",
									"text" : "zl reg",
									"fontsize" : 12.0,
									"numinlets" : 2,
									"numoutlets" : 2,
									"patching_rect" : [ 213.0, 399.0, 45.0, 20.0 ],
									"outlettype" : [ "", "" ],
									"id" : "obj-10",
									"fontname" : "Arial"
								}

							}
, 							{
								"box" : 								{
									"maxclass" : "comment",
									"text" : "0x8B - TX Status\n0x88 - Local AT Status\n0x8A - Local Modem Status\n0x97 - Remote AT Status",
									"linecount" : 4,
									"fontsize" : 12.0,
									"numinlets" : 1,
									"numoutlets" : 0,
									"patching_rect" : [ 408.0, 34.0, 212.0, 62.0 ],
									"id" : "obj-5",
									"fontname" : "Arial"
								}

							}
, 							{
								"box" : 								{
									"maxclass" : "newobj",
									"text" : "select 126",
									"fontsize" : 12.0,
									"numinlets" : 2,
									"numoutlets" : 2,
									"patching_rect" : [ 65.0, 78.0, 74.0, 20.0 ],
									"outlettype" : [ "bang", "" ],
									"id" : "obj-136",
									"fontname" : "Arial"
								}

							}
, 							{
								"box" : 								{
									"maxclass" : "number",
									"fontsize" : 12.0,
									"numinlets" : 1,
									"htextcolor" : [ 0.870588, 0.870588, 0.870588, 1.0 ],
									"numoutlets" : 2,
									"bgcolor" : [ 0.866667, 0.866667, 0.866667, 1.0 ],
									"patching_rect" : [ 65.0, 479.0, 37.0, 20.0 ],
									"outlettype" : [ "int", "bang" ],
									"id" : "obj-143",
									"fontname" : "Arial",
									"triscale" : 0.9
								}

							}
, 							{
								"box" : 								{
									"maxclass" : "newobj",
									"text" : "+ 0",
									"fontsize" : 12.0,
									"numinlets" : 2,
									"numoutlets" : 1,
									"patching_rect" : [ 65.0, 374.0, 34.0, 20.0 ],
									"outlettype" : [ "int" ],
									"id" : "obj-144",
									"fontname" : "Arial"
								}

							}
, 							{
								"box" : 								{
									"maxclass" : "newobj",
									"text" : "<< 8",
									"fontsize" : 12.0,
									"numinlets" : 2,
									"numoutlets" : 1,
									"patching_rect" : [ 65.0, 345.0, 36.0, 20.0 ],
									"outlettype" : [ "int" ],
									"id" : "obj-145",
									"fontname" : "Arial"
								}

							}
, 							{
								"box" : 								{
									"maxclass" : "newobj",
									"text" : "zl slice 1",
									"fontsize" : 12.0,
									"numinlets" : 2,
									"numoutlets" : 2,
									"patching_rect" : [ 192.0, 316.0, 66.0, 20.0 ],
									"outlettype" : [ "", "" ],
									"id" : "obj-148",
									"fontname" : "Arial"
								}

							}
, 							{
								"box" : 								{
									"maxclass" : "newobj",
									"text" : "unpack 0 0",
									"fontsize" : 12.0,
									"numinlets" : 1,
									"numoutlets" : 2,
									"patching_rect" : [ 65.0, 316.0, 74.0, 20.0 ],
									"outlettype" : [ "int", "int" ],
									"id" : "obj-149",
									"fontname" : "Arial"
								}

							}
, 							{
								"box" : 								{
									"maxclass" : "newobj",
									"text" : "zl slice 2",
									"fontsize" : 12.0,
									"numinlets" : 2,
									"numoutlets" : 2,
									"patching_rect" : [ 65.0, 285.0, 66.0, 20.0 ],
									"outlettype" : [ "", "" ],
									"id" : "obj-150",
									"fontname" : "Arial"
								}

							}
, 							{
								"box" : 								{
									"maxclass" : "newobj",
									"text" : "zl group 100",
									"fontsize" : 12.0,
									"numinlets" : 2,
									"numoutlets" : 2,
									"patching_rect" : [ 65.0, 250.0, 87.0, 20.0 ],
									"outlettype" : [ "", "" ],
									"id" : "obj-151",
									"fontname" : "Arial"
								}

							}
, 							{
								"box" : 								{
									"maxclass" : "comment",
									"text" : "length",
									"fontsize" : 12.0,
									"numinlets" : 1,
									"numoutlets" : 0,
									"patching_rect" : [ 65.0, 500.0, 43.0, 20.0 ],
									"id" : "obj-158",
									"fontname" : "Arial"
								}

							}
, 							{
								"box" : 								{
									"maxclass" : "comment",
									"text" : "will never be longer than 100 bytes",
									"linecount" : 2,
									"fontsize" : 12.0,
									"numinlets" : 1,
									"numoutlets" : 0,
									"patching_rect" : [ 160.0, 241.0, 145.0, 34.0 ],
									"id" : "obj-160",
									"fontname" : "Arial"
								}

							}
, 							{
								"box" : 								{
									"maxclass" : "comment",
									"text" : "take the first 2+1 bytes after the start byte",
									"fontsize" : 12.0,
									"numinlets" : 1,
									"numoutlets" : 0,
									"patching_rect" : [ 140.0, 285.0, 257.0, 20.0 ],
									"id" : "obj-161",
									"fontname" : "Arial"
								}

							}
, 							{
								"box" : 								{
									"maxclass" : "comment",
									"text" : "check delimiter 0x7E",
									"fontsize" : 12.0,
									"numinlets" : 1,
									"numoutlets" : 0,
									"patching_rect" : [ 144.0, 78.0, 131.0, 20.0 ],
									"id" : "obj-162",
									"fontname" : "Arial"
								}

							}
 ],
						"lines" : [ 							{
								"patchline" : 								{
									"source" : [ "obj-9", 1 ],
									"destination" : [ "obj-4", 0 ],
									"hidden" : 0,
									"midpoints" : [  ]
								}

							}
, 							{
								"patchline" : 								{
									"source" : [ "obj-148", 0 ],
									"destination" : [ "obj-9", 0 ],
									"hidden" : 0,
									"midpoints" : [ 201.5, 350.0, 171.5, 350.0 ]
								}

							}
, 							{
								"patchline" : 								{
									"source" : [ "obj-148", 1 ],
									"destination" : [ "obj-10", 1 ],
									"hidden" : 0,
									"midpoints" : [ 248.5, 339.5, 248.5, 339.5 ]
								}

							}
, 							{
								"patchline" : 								{
									"source" : [ "obj-9", 0 ],
									"destination" : [ "obj-10", 0 ],
									"hidden" : 0,
									"midpoints" : [  ]
								}

							}
, 							{
								"patchline" : 								{
									"source" : [ "obj-7", 0 ],
									"destination" : [ "obj-8", 0 ],
									"hidden" : 0,
									"midpoints" : [  ]
								}

							}
, 							{
								"patchline" : 								{
									"source" : [ "obj-10", 0 ],
									"destination" : [ "obj-8", 0 ],
									"hidden" : 0,
									"midpoints" : [  ]
								}

							}
, 							{
								"patchline" : 								{
									"source" : [ "obj-136", 1 ],
									"destination" : [ "obj-151", 0 ],
									"hidden" : 0,
									"midpoints" : [  ]
								}

							}
, 							{
								"patchline" : 								{
									"source" : [ "obj-151", 0 ],
									"destination" : [ "obj-150", 0 ],
									"hidden" : 0,
									"midpoints" : [  ]
								}

							}
, 							{
								"patchline" : 								{
									"source" : [ "obj-150", 0 ],
									"destination" : [ "obj-149", 0 ],
									"hidden" : 0,
									"midpoints" : [  ]
								}

							}
, 							{
								"patchline" : 								{
									"source" : [ "obj-149", 0 ],
									"destination" : [ "obj-145", 0 ],
									"hidden" : 0,
									"midpoints" : [  ]
								}

							}
, 							{
								"patchline" : 								{
									"source" : [ "obj-145", 0 ],
									"destination" : [ "obj-144", 0 ],
									"hidden" : 0,
									"midpoints" : [  ]
								}

							}
, 							{
								"patchline" : 								{
									"source" : [ "obj-144", 0 ],
									"destination" : [ "obj-143", 0 ],
									"hidden" : 0,
									"midpoints" : [  ]
								}

							}
, 							{
								"patchline" : 								{
									"source" : [ "obj-149", 1 ],
									"destination" : [ "obj-144", 1 ],
									"hidden" : 0,
									"midpoints" : [  ]
								}

							}
, 							{
								"patchline" : 								{
									"source" : [ "obj-150", 1 ],
									"destination" : [ "obj-148", 0 ],
									"hidden" : 0,
									"midpoints" : [ 121.5, 309.0, 201.5, 309.0 ]
								}

							}
, 							{
								"patchline" : 								{
									"source" : [ "obj-4", 0 ],
									"destination" : [ "obj-7", 0 ],
									"hidden" : 0,
									"midpoints" : [  ]
								}

							}
, 							{
								"patchline" : 								{
									"source" : [ "obj-21", 0 ],
									"destination" : [ "obj-28", 0 ],
									"hidden" : 0,
									"midpoints" : [  ]
								}

							}
, 							{
								"patchline" : 								{
									"source" : [ "obj-22", 0 ],
									"destination" : [ "obj-30", 0 ],
									"hidden" : 0,
									"midpoints" : [  ]
								}

							}
, 							{
								"patchline" : 								{
									"source" : [ "obj-20", 0 ],
									"destination" : [ "obj-26", 0 ],
									"hidden" : 0,
									"midpoints" : [  ]
								}

							}
, 							{
								"patchline" : 								{
									"source" : [ "obj-1", 0 ],
									"destination" : [ "obj-136", 0 ],
									"hidden" : 0,
									"midpoints" : [  ]
								}

							}
, 							{
								"patchline" : 								{
									"source" : [ "obj-19", 0 ],
									"destination" : [ "obj-36", 0 ],
									"hidden" : 0,
									"midpoints" : [  ]
								}

							}
, 							{
								"patchline" : 								{
									"source" : [ "obj-36", 1 ],
									"destination" : [ "obj-39", 0 ],
									"hidden" : 0,
									"midpoints" : [  ]
								}

							}
, 							{
								"patchline" : 								{
									"source" : [ "obj-39", 1 ],
									"destination" : [ "obj-40", 0 ],
									"hidden" : 0,
									"midpoints" : [  ]
								}

							}
, 							{
								"patchline" : 								{
									"source" : [ "obj-49", 0 ],
									"destination" : [ "obj-50", 0 ],
									"hidden" : 0,
									"midpoints" : [  ]
								}

							}
, 							{
								"patchline" : 								{
									"source" : [ "obj-52", 0 ],
									"destination" : [ "obj-53", 0 ],
									"hidden" : 0,
									"midpoints" : [  ]
								}

							}
, 							{
								"patchline" : 								{
									"source" : [ "obj-49", 0 ],
									"destination" : [ "obj-55", 1 ],
									"hidden" : 0,
									"midpoints" : [  ]
								}

							}
, 							{
								"patchline" : 								{
									"source" : [ "obj-52", 0 ],
									"destination" : [ "obj-55", 1 ],
									"hidden" : 0,
									"midpoints" : [  ]
								}

							}
, 							{
								"patchline" : 								{
									"source" : [ "obj-40", 0 ],
									"destination" : [ "obj-56", 0 ],
									"hidden" : 0,
									"midpoints" : [  ]
								}

							}
, 							{
								"patchline" : 								{
									"source" : [ "obj-136", 0 ],
									"destination" : [ "obj-57", 0 ],
									"hidden" : 0,
									"midpoints" : [  ]
								}

							}
, 							{
								"patchline" : 								{
									"source" : [ "obj-136", 0 ],
									"destination" : [ "obj-151", 0 ],
									"hidden" : 0,
									"midpoints" : [  ]
								}

							}
, 							{
								"patchline" : 								{
									"source" : [ "obj-57", 0 ],
									"destination" : [ "obj-151", 0 ],
									"hidden" : 0,
									"midpoints" : [  ]
								}

							}
, 							{
								"patchline" : 								{
									"source" : [ "obj-34", 0 ],
									"destination" : [ "obj-61", 0 ],
									"hidden" : 0,
									"midpoints" : [  ]
								}

							}
, 							{
								"patchline" : 								{
									"source" : [ "obj-61", 0 ],
									"destination" : [ "obj-59", 1 ],
									"hidden" : 0,
									"midpoints" : [  ]
								}

							}
, 							{
								"patchline" : 								{
									"source" : [ "obj-59", 0 ],
									"destination" : [ "obj-71", 0 ],
									"hidden" : 0,
									"midpoints" : [  ]
								}

							}
, 							{
								"patchline" : 								{
									"source" : [ "obj-77", 0 ],
									"destination" : [ "obj-71", 1 ],
									"hidden" : 0,
									"midpoints" : [  ]
								}

							}
, 							{
								"patchline" : 								{
									"source" : [ "obj-56", 0 ],
									"destination" : [ "obj-47", 0 ],
									"hidden" : 0,
									"midpoints" : [  ]
								}

							}
, 							{
								"patchline" : 								{
									"source" : [ "obj-47", 0 ],
									"destination" : [ "obj-77", 0 ],
									"hidden" : 0,
									"midpoints" : [  ]
								}

							}
, 							{
								"patchline" : 								{
									"source" : [ "obj-47", 1 ],
									"destination" : [ "obj-78", 0 ],
									"hidden" : 0,
									"midpoints" : [  ]
								}

							}
, 							{
								"patchline" : 								{
									"source" : [ "obj-78", 0 ],
									"destination" : [ "obj-71", 1 ],
									"hidden" : 0,
									"midpoints" : [  ]
								}

							}
, 							{
								"patchline" : 								{
									"source" : [ "obj-79", 1 ],
									"destination" : [ "obj-52", 0 ],
									"hidden" : 0,
									"midpoints" : [  ]
								}

							}
, 							{
								"patchline" : 								{
									"source" : [ "obj-79", 0 ],
									"destination" : [ "obj-49", 0 ],
									"hidden" : 0,
									"midpoints" : [  ]
								}

							}
, 							{
								"patchline" : 								{
									"source" : [ "obj-71", 0 ],
									"destination" : [ "obj-79", 0 ],
									"hidden" : 0,
									"midpoints" : [  ]
								}

							}
, 							{
								"patchline" : 								{
									"source" : [ "obj-19", 0 ],
									"destination" : [ "obj-87", 0 ],
									"hidden" : 0,
									"midpoints" : [  ]
								}

							}
, 							{
								"patchline" : 								{
									"source" : [ "obj-61", 0 ],
									"destination" : [ "obj-89", 1 ],
									"hidden" : 0,
									"midpoints" : [  ]
								}

							}
, 							{
								"patchline" : 								{
									"source" : [ "obj-36", 0 ],
									"destination" : [ "obj-91", 0 ],
									"hidden" : 0,
									"midpoints" : [ 487.5, 343.0, 389.5, 343.0 ]
								}

							}
, 							{
								"patchline" : 								{
									"source" : [ "obj-92", 0 ],
									"destination" : [ "obj-59", 0 ],
									"hidden" : 0,
									"midpoints" : [  ]
								}

							}
, 							{
								"patchline" : 								{
									"source" : [ "obj-92", 0 ],
									"destination" : [ "obj-90", 1 ],
									"hidden" : 0,
									"midpoints" : [  ]
								}

							}
, 							{
								"patchline" : 								{
									"source" : [ "obj-21", 0 ],
									"destination" : [ "obj-102", 0 ],
									"hidden" : 0,
									"midpoints" : [  ]
								}

							}
, 							{
								"patchline" : 								{
									"source" : [ "obj-102", 0 ],
									"destination" : [ "obj-103", 0 ],
									"hidden" : 0,
									"midpoints" : [ 696.5, 344.5, 622.5, 344.5 ]
								}

							}
, 							{
								"patchline" : 								{
									"source" : [ "obj-100", 0 ],
									"destination" : [ "obj-105", 1 ],
									"hidden" : 0,
									"midpoints" : [  ]
								}

							}
, 							{
								"patchline" : 								{
									"source" : [ "obj-101", 1 ],
									"destination" : [ "obj-100", 0 ],
									"hidden" : 0,
									"midpoints" : [  ]
								}

							}
, 							{
								"patchline" : 								{
									"source" : [ "obj-102", 1 ],
									"destination" : [ "obj-101", 0 ],
									"hidden" : 0,
									"midpoints" : [  ]
								}

							}
, 							{
								"patchline" : 								{
									"source" : [ "obj-100", 0 ],
									"destination" : [ "obj-56", 0 ],
									"hidden" : 0,
									"midpoints" : [  ]
								}

							}
, 							{
								"patchline" : 								{
									"source" : [ "obj-101", 0 ],
									"destination" : [ "obj-112", 0 ],
									"hidden" : 0,
									"midpoints" : [  ]
								}

							}
, 							{
								"patchline" : 								{
									"source" : [ "obj-113", 0 ],
									"destination" : [ "obj-117", 0 ],
									"hidden" : 0,
									"midpoints" : [  ]
								}

							}
, 							{
								"patchline" : 								{
									"source" : [ "obj-117", 0 ],
									"destination" : [ "obj-119", 1 ],
									"hidden" : 0,
									"midpoints" : [  ]
								}

							}
 ]
					}
,
					"saved_object_attributes" : 					{
						"globalpatchername" : "",
						"fontface" : 0,
						"fontsize" : 12.0,
						"default_fontface" : 0,
						"default_fontname" : "Arial",
						"fontname" : "Arial",
						"default_fontsize" : 12.0
					}

				}

			}
, 			{
				"box" : 				{
					"maxclass" : "message",
					"text" : "46 52",
					"fontsize" : 12.0,
					"numinlets" : 2,
					"numoutlets" : 1,
					"patching_rect" : [ 683.0, 10.0, 41.0, 18.0 ],
					"outlettype" : [ "" ],
					"id" : "obj-11",
					"fontname" : "Arial"
				}

			}
, 			{
				"box" : 				{
					"maxclass" : "message",
					"text" : "46 52",
					"fontsize" : 12.0,
					"numinlets" : 2,
					"numoutlets" : 1,
					"patching_rect" : [ 607.0, 10.0, 41.0, 18.0 ],
					"outlettype" : [ "" ],
					"id" : "obj-3",
					"fontname" : "Arial"
				}

			}
, 			{
				"box" : 				{
					"maxclass" : "message",
					"text" : "115 0",
					"fontsize" : 12.0,
					"numinlets" : 2,
					"numoutlets" : 1,
					"patching_rect" : [ 529.0, 10.0, 40.0, 18.0 ],
					"outlettype" : [ "" ],
					"id" : "obj-2",
					"fontname" : "Arial"
				}

			}
, 			{
				"box" : 				{
					"maxclass" : "newobj",
					"text" : "loadbang",
					"fontsize" : 12.0,
					"numinlets" : 1,
					"numoutlets" : 1,
					"patching_rect" : [ 212.0, 133.0, 60.0, 20.0 ],
					"outlettype" : [ "bang" ],
					"id" : "obj-27",
					"fontname" : "Arial"
				}

			}
, 			{
				"box" : 				{
					"maxclass" : "newobj",
					"text" : "loadbang",
					"fontsize" : 12.0,
					"numinlets" : 1,
					"numoutlets" : 1,
					"patching_rect" : [ 211.0, 37.0, 60.0, 20.0 ],
					"outlettype" : [ "bang" ],
					"id" : "obj-25",
					"fontname" : "Arial"
				}

			}
, 			{
				"box" : 				{
					"maxclass" : "newobj",
					"text" : "s clientAddress",
					"fontsize" : 12.0,
					"numinlets" : 1,
					"numoutlets" : 0,
					"patching_rect" : [ 211.0, 96.0, 92.0, 20.0 ],
					"id" : "obj-76",
					"fontname" : "Arial"
				}

			}
, 			{
				"box" : 				{
					"maxclass" : "message",
					"text" : "0 13 A2 0 40 A2 8E 61 FF FE",
					"fontsize" : 12.0,
					"numinlets" : 2,
					"numoutlets" : 1,
					"patching_rect" : [ 211.0, 68.0, 167.0, 18.0 ],
					"outlettype" : [ "" ],
					"id" : "obj-23",
					"fontname" : "Arial"
				}

			}
, 			{
				"box" : 				{
					"maxclass" : "newobj",
					"text" : "loadbang",
					"fontsize" : 12.0,
					"numinlets" : 1,
					"numoutlets" : 1,
					"patching_rect" : [ 80.0, 36.0, 60.0, 20.0 ],
					"outlettype" : [ "bang" ],
					"id" : "obj-17",
					"fontname" : "Arial"
				}

			}
, 			{
				"box" : 				{
					"maxclass" : "message",
					"text" : "3D",
					"fontsize" : 12.0,
					"numinlets" : 2,
					"numoutlets" : 1,
					"patching_rect" : [ 921.0, 238.0, 50.0, 18.0 ],
					"outlettype" : [ "" ],
					"id" : "obj-16",
					"fontname" : "Arial"
				}

			}
, 			{
				"box" : 				{
					"maxclass" : "message",
					"text" : "usbserial-DA00UELS",
					"fontsize" : 12.0,
					"numinlets" : 2,
					"numoutlets" : 1,
					"patching_rect" : [ 80.0, 68.0, 124.0, 18.0 ],
					"outlettype" : [ "" ],
					"id" : "obj-75",
					"fontname" : "Arial"
				}

			}
, 			{
				"box" : 				{
					"maxclass" : "newobj",
					"text" : "p writeAPIFrame",
					"fontsize" : 12.0,
					"numinlets" : 3,
					"numoutlets" : 1,
					"patching_rect" : [ 614.0, 81.0, 100.0, 20.0 ],
					"outlettype" : [ "" ],
					"id" : "obj-39",
					"fontname" : "Arial",
					"patcher" : 					{
						"fileversion" : 1,
						"rect" : [ 271.0, 52.0, 1198.0, 980.0 ],
						"bglocked" : 0,
						"defrect" : [ 271.0, 52.0, 1198.0, 980.0 ],
						"openrect" : [ 0.0, 0.0, 0.0, 0.0 ],
						"openinpresentation" : 0,
						"default_fontsize" : 12.0,
						"default_fontface" : 0,
						"default_fontname" : "Arial",
						"gridonopen" : 0,
						"gridsize" : [ 15.0, 15.0 ],
						"gridsnaponopen" : 0,
						"toolbarvisible" : 1,
						"boxanimatetime" : 200,
						"imprint" : 0,
						"enablehscroll" : 1,
						"enablevscroll" : 1,
						"devicewidth" : 0.0,
						"visible" : 1,
						"boxes" : [ 							{
								"box" : 								{
									"maxclass" : "newobj",
									"text" : "s setFrameID",
									"fontsize" : 12.0,
									"numinlets" : 1,
									"numoutlets" : 0,
									"patching_rect" : [ 301.0, 629.0, 83.0, 20.0 ],
									"id" : "obj-1",
									"fontname" : "Arial"
								}

							}
, 							{
								"box" : 								{
									"maxclass" : "comment",
									"text" : "payload",
									"fontsize" : 12.0,
									"numinlets" : 1,
									"numoutlets" : 0,
									"patching_rect" : [ 1147.0, 436.0, 150.0, 20.0 ],
									"id" : "obj-12",
									"fontname" : "Arial"
								}

							}
, 							{
								"box" : 								{
									"maxclass" : "comment",
									"text" : "payload",
									"fontsize" : 12.0,
									"numinlets" : 1,
									"numoutlets" : 0,
									"patching_rect" : [ 883.0, 436.0, 150.0, 20.0 ],
									"id" : "obj-6",
									"fontname" : "Arial"
								}

							}
, 							{
								"box" : 								{
									"maxclass" : "comment",
									"text" : "payload",
									"fontsize" : 12.0,
									"numinlets" : 1,
									"numoutlets" : 0,
									"patching_rect" : [ 698.0, 436.0, 150.0, 20.0 ],
									"id" : "obj-4",
									"fontname" : "Arial"
								}

							}
, 							{
								"box" : 								{
									"maxclass" : "newobj",
									"text" : "loadmess 0",
									"fontsize" : 12.0,
									"numinlets" : 1,
									"numoutlets" : 1,
									"patching_rect" : [ 205.0, 231.0, 72.0, 20.0 ],
									"outlettype" : [ "" ],
									"id" : "obj-84",
									"fontname" : "Arial"
								}

							}
, 							{
								"box" : 								{
									"maxclass" : "comment",
									"text" : "Requests: TX / AT / Remote AT",
									"fontsize" : 12.0,
									"numinlets" : 1,
									"numoutlets" : 0,
									"patching_rect" : [ 234.0, 14.0, 175.0, 20.0 ],
									"id" : "obj-78",
									"fontname" : "Arial"
								}

							}
, 							{
								"box" : 								{
									"maxclass" : "newobj",
									"text" : "r clientAddress",
									"fontsize" : 12.0,
									"numinlets" : 0,
									"numoutlets" : 1,
									"patching_rect" : [ 608.0, 303.0, 90.0, 20.0 ],
									"outlettype" : [ "" ],
									"id" : "obj-72",
									"fontname" : "Arial"
								}

							}
, 							{
								"box" : 								{
									"maxclass" : "newobj",
									"text" : "t b b b",
									"fontsize" : 12.0,
									"numinlets" : 1,
									"numoutlets" : 3,
									"patching_rect" : [ 1062.0, 394.0, 46.0, 20.0 ],
									"outlettype" : [ "bang", "bang", "bang" ],
									"id" : "obj-64",
									"fontname" : "Arial"
								}

							}
, 							{
								"box" : 								{
									"maxclass" : "message",
									"text" : "2",
									"fontsize" : 12.0,
									"numinlets" : 2,
									"numoutlets" : 1,
									"patching_rect" : [ 1104.0, 461.0, 32.5, 18.0 ],
									"outlettype" : [ "" ],
									"id" : "obj-68",
									"fontname" : "Arial"
								}

							}
, 							{
								"box" : 								{
									"maxclass" : "message",
									"text" : "0 13 A2 0 40 A2 8E 61 FF FE",
									"linecount" : 3,
									"fontsize" : 12.0,
									"numinlets" : 2,
									"numoutlets" : 1,
									"patching_rect" : [ 1034.0, 461.0, 63.0, 46.0 ],
									"outlettype" : [ "" ],
									"id" : "obj-69",
									"fontname" : "Arial"
								}

							}
, 							{
								"box" : 								{
									"maxclass" : "newobj",
									"text" : "t b b b",
									"fontsize" : 12.0,
									"numinlets" : 1,
									"numoutlets" : 3,
									"patching_rect" : [ 518.0, 75.0, 46.0, 20.0 ],
									"outlettype" : [ "bang", "bang", "bang" ],
									"id" : "obj-60",
									"fontname" : "Arial"
								}

							}
, 							{
								"box" : 								{
									"maxclass" : "comment",
									"text" : "Remote AT Request frameLength(10) and frameID(0x)",
									"linecount" : 3,
									"fontsize" : 12.0,
									"numinlets" : 1,
									"numoutlets" : 0,
									"patching_rect" : [ 972.0, 182.0, 119.0, 48.0 ],
									"id" : "obj-59",
									"fontname" : "Arial"
								}

							}
, 							{
								"box" : 								{
									"maxclass" : "comment",
									"text" : "TX Request frameLength(10)\nand frameID(0x)",
									"linecount" : 3,
									"fontsize" : 12.0,
									"numinlets" : 1,
									"numoutlets" : 0,
									"patching_rect" : [ 576.0, 183.0, 124.0, 48.0 ],
									"id" : "obj-56",
									"fontname" : "Arial"
								}

							}
, 							{
								"box" : 								{
									"maxclass" : "message",
									"text" : "17",
									"fontsize" : 12.0,
									"numinlets" : 2,
									"numoutlets" : 1,
									"patching_rect" : [ 925.0, 211.0, 32.5, 18.0 ],
									"outlettype" : [ "" ],
									"id" : "obj-52",
									"fontname" : "Arial"
								}

							}
, 							{
								"box" : 								{
									"maxclass" : "message",
									"text" : "46 52",
									"fontsize" : 12.0,
									"numinlets" : 2,
									"numoutlets" : 1,
									"patching_rect" : [ 1144.0, 461.0, 41.0, 18.0 ],
									"outlettype" : [ "" ],
									"id" : "obj-48",
									"fontname" : "Arial"
								}

							}
, 							{
								"box" : 								{
									"maxclass" : "newobj",
									"text" : "s pushChecksum",
									"fontsize" : 12.0,
									"numinlets" : 1,
									"numoutlets" : 0,
									"patching_rect" : [ 676.0, 705.0, 103.0, 20.0 ],
									"id" : "obj-45",
									"fontname" : "Arial"
								}

							}
, 							{
								"box" : 								{
									"maxclass" : "newobj",
									"text" : "r setChecksum",
									"fontsize" : 12.0,
									"numinlets" : 0,
									"numoutlets" : 1,
									"patching_rect" : [ 1314.0, 237.0, 91.0, 20.0 ],
									"outlettype" : [ "" ],
									"id" : "obj-42",
									"fontname" : "Arial"
								}

							}
, 							{
								"box" : 								{
									"maxclass" : "newobj",
									"text" : "r pushChecksum",
									"fontsize" : 12.0,
									"numinlets" : 0,
									"numoutlets" : 1,
									"patching_rect" : [ 1249.0, 215.0, 101.0, 20.0 ],
									"outlettype" : [ "" ],
									"id" : "obj-40",
									"fontname" : "Arial"
								}

							}
, 							{
								"box" : 								{
									"maxclass" : "newobj",
									"text" : "s setChecksum",
									"fontsize" : 12.0,
									"numinlets" : 1,
									"numoutlets" : 0,
									"patching_rect" : [ 617.0, 882.0, 93.0, 20.0 ],
									"id" : "obj-35",
									"fontname" : "Arial"
								}

							}
, 							{
								"box" : 								{
									"maxclass" : "comment",
									"text" : "send frameID for status check",
									"fontsize" : 12.0,
									"numinlets" : 1,
									"numoutlets" : 0,
									"patching_rect" : [ 301.0, 659.0, 188.0, 20.0 ],
									"id" : "obj-34",
									"fontname" : "Arial"
								}

							}
, 							{
								"box" : 								{
									"maxclass" : "comment",
									"text" : "to serial",
									"fontsize" : 12.0,
									"numinlets" : 1,
									"numoutlets" : 0,
									"patching_rect" : [ 278.0, 910.0, 52.0, 20.0 ],
									"id" : "obj-33",
									"fontname" : "Arial"
								}

							}
, 							{
								"box" : 								{
									"maxclass" : "newobj",
									"text" : "r frameType",
									"fontsize" : 12.0,
									"numinlets" : 0,
									"numoutlets" : 1,
									"patching_rect" : [ 397.0, 309.0, 75.0, 20.0 ],
									"outlettype" : [ "" ],
									"id" : "obj-22",
									"fontname" : "Arial"
								}

							}
, 							{
								"box" : 								{
									"maxclass" : "message",
									"text" : "10",
									"fontsize" : 12.0,
									"numinlets" : 2,
									"numoutlets" : 1,
									"patching_rect" : [ 538.0, 212.0, 32.5, 18.0 ],
									"outlettype" : [ "" ],
									"id" : "obj-21",
									"fontname" : "Arial"
								}

							}
, 							{
								"box" : 								{
									"maxclass" : "newobj",
									"text" : "s frameType",
									"fontsize" : 12.0,
									"numinlets" : 1,
									"numoutlets" : 0,
									"patching_rect" : [ 807.0, 304.0, 77.0, 20.0 ],
									"id" : "obj-20",
									"fontname" : "Arial"
								}

							}
, 							{
								"box" : 								{
									"maxclass" : "message",
									"text" : "8",
									"fontsize" : 12.0,
									"numinlets" : 2,
									"numoutlets" : 1,
									"patching_rect" : [ 870.0, 212.0, 32.5, 18.0 ],
									"outlettype" : [ "" ],
									"id" : "obj-19",
									"fontname" : "Arial"
								}

							}
, 							{
								"box" : 								{
									"maxclass" : "message",
									"text" : "46 52",
									"fontsize" : 12.0,
									"numinlets" : 2,
									"numoutlets" : 1,
									"patching_rect" : [ 882.0, 461.0, 41.0, 18.0 ],
									"outlettype" : [ "" ],
									"id" : "obj-16",
									"fontname" : "Arial"
								}

							}
, 							{
								"box" : 								{
									"maxclass" : "newobj",
									"text" : "t b b b",
									"fontsize" : 12.0,
									"numinlets" : 1,
									"numoutlets" : 3,
									"patching_rect" : [ 468.0, 75.0, 46.0, 20.0 ],
									"outlettype" : [ "bang", "bang", "bang" ],
									"id" : "obj-14",
									"fontname" : "Arial"
								}

							}
, 							{
								"box" : 								{
									"maxclass" : "newobj",
									"text" : "r frameLength",
									"fontsize" : 12.0,
									"numinlets" : 0,
									"numoutlets" : 1,
									"patching_rect" : [ 302.0, 309.0, 85.0, 20.0 ],
									"outlettype" : [ "" ],
									"id" : "obj-11",
									"fontname" : "Arial"
								}

							}
, 							{
								"box" : 								{
									"maxclass" : "newobj",
									"text" : "t b b b",
									"fontsize" : 12.0,
									"numinlets" : 1,
									"numoutlets" : 3,
									"patching_rect" : [ 418.0, 75.0, 46.0, 20.0 ],
									"outlettype" : [ "bang", "bang", "bang" ],
									"id" : "obj-10",
									"fontname" : "Arial"
								}

							}
, 							{
								"box" : 								{
									"maxclass" : "newobj",
									"text" : "r frameLength",
									"fontsize" : 12.0,
									"numinlets" : 0,
									"numoutlets" : 1,
									"patching_rect" : [ 665.0, 533.0, 85.0, 20.0 ],
									"outlettype" : [ "" ],
									"id" : "obj-9",
									"fontname" : "Arial"
								}

							}
, 							{
								"box" : 								{
									"maxclass" : "newobj",
									"text" : "s frameLength",
									"fontsize" : 12.0,
									"numinlets" : 1,
									"numoutlets" : 0,
									"patching_rect" : [ 708.0, 303.0, 87.0, 20.0 ],
									"id" : "obj-8",
									"fontname" : "Arial"
								}

							}
, 							{
								"box" : 								{
									"maxclass" : "newobj",
									"text" : "zl iter 1",
									"fontsize" : 12.0,
									"numinlets" : 2,
									"numoutlets" : 2,
									"patching_rect" : [ 340.0, 810.0, 49.0, 20.0 ],
									"outlettype" : [ "", "" ],
									"id" : "obj-5",
									"fontname" : "Arial"
								}

							}
, 							{
								"box" : 								{
									"maxclass" : "newobj",
									"text" : "sprintf 0x%s",
									"fontsize" : 11.0,
									"numinlets" : 1,
									"numoutlets" : 1,
									"patching_rect" : [ 340.0, 840.0, 81.0, 20.0 ],
									"outlettype" : [ "" ],
									"id" : "obj-175",
									"fontname" : "Verdana"
								}

							}
, 							{
								"box" : 								{
									"maxclass" : "message",
									"text" : "15",
									"fontsize" : 12.0,
									"numinlets" : 2,
									"numoutlets" : 1,
									"patching_rect" : [ 925.0, 184.0, 32.5, 18.0 ],
									"outlettype" : [ "" ],
									"id" : "obj-169",
									"fontname" : "Arial"
								}

							}
, 							{
								"box" : 								{
									"maxclass" : "comment",
									"text" : "Local AT Request frameLength(10) and frameID(0x)",
									"linecount" : 3,
									"fontsize" : 12.0,
									"numinlets" : 1,
									"numoutlets" : 0,
									"patching_rect" : [ 752.0, 183.0, 108.0, 48.0 ],
									"id" : "obj-162",
									"fontname" : "Arial"
								}

							}
, 							{
								"box" : 								{
									"maxclass" : "message",
									"text" : "4",
									"fontsize" : 12.0,
									"numinlets" : 2,
									"numoutlets" : 1,
									"patching_rect" : [ 870.0, 184.0, 32.5, 18.0 ],
									"outlettype" : [ "" ],
									"id" : "obj-164",
									"fontname" : "Arial"
								}

							}
, 							{
								"box" : 								{
									"maxclass" : "comment",
									"text" : "frame ID inc",
									"fontsize" : 12.0,
									"numinlets" : 1,
									"numoutlets" : 0,
									"patching_rect" : [ 86.0, 303.0, 79.0, 20.0 ],
									"id" : "obj-155",
									"fontname" : "Arial"
								}

							}
, 							{
								"box" : 								{
									"maxclass" : "comment",
									"text" : "common frame bytes:",
									"fontsize" : 12.0,
									"numinlets" : 1,
									"numoutlets" : 0,
									"patching_rect" : [ 84.0, 393.0, 150.0, 20.0 ],
									"id" : "obj-154",
									"fontname" : "Arial"
								}

							}
, 							{
								"box" : 								{
									"maxclass" : "newobj",
									"text" : "t b b b",
									"fontsize" : 12.0,
									"numinlets" : 1,
									"numoutlets" : 3,
									"patching_rect" : [ 616.0, 393.0, 46.0, 20.0 ],
									"outlettype" : [ "bang", "bang", "bang" ],
									"id" : "obj-152",
									"fontname" : "Arial"
								}

							}
, 							{
								"box" : 								{
									"maxclass" : "newobj",
									"text" : "t b b b b b b",
									"fontsize" : 12.0,
									"numinlets" : 1,
									"numoutlets" : 6,
									"patching_rect" : [ 272.0, 180.0, 86.5, 20.0 ],
									"outlettype" : [ "bang", "bang", "bang", "bang", "bang", "bang" ],
									"id" : "obj-151",
									"fontname" : "Arial"
								}

							}
, 							{
								"box" : 								{
									"maxclass" : "newobj",
									"text" : "zl iter 1",
									"fontsize" : 12.0,
									"numinlets" : 2,
									"numoutlets" : 2,
									"patching_rect" : [ 287.0, 424.0, 49.0, 20.0 ],
									"outlettype" : [ "", "" ],
									"id" : "obj-148",
									"fontname" : "Arial"
								}

							}
, 							{
								"box" : 								{
									"maxclass" : "newobj",
									"text" : "zl iter 1",
									"fontsize" : 12.0,
									"numinlets" : 2,
									"numoutlets" : 2,
									"patching_rect" : [ 632.0, 644.0, 49.0, 20.0 ],
									"outlettype" : [ "", "" ],
									"id" : "obj-143",
									"fontname" : "Arial"
								}

							}
, 							{
								"box" : 								{
									"maxclass" : "newobj",
									"text" : "regexp ..$",
									"fontsize" : 12.0,
									"numinlets" : 1,
									"numoutlets" : 5,
									"patching_rect" : [ 619.0, 768.0, 73.0, 20.0 ],
									"outlettype" : [ "", "", "", "", "" ],
									"id" : "obj-119",
									"fontname" : "Arial"
								}

							}
, 							{
								"box" : 								{
									"maxclass" : "message",
									"text" : "set 0",
									"fontsize" : 12.0,
									"numinlets" : 2,
									"numoutlets" : 1,
									"patching_rect" : [ 571.0, 708.0, 37.0, 18.0 ],
									"outlettype" : [ "" ],
									"id" : "obj-108",
									"fontname" : "Arial"
								}

							}
, 							{
								"box" : 								{
									"maxclass" : "button",
									"numinlets" : 1,
									"numoutlets" : 1,
									"patching_rect" : [ 565.0, 644.0, 20.0, 20.0 ],
									"outlettype" : [ "bang" ],
									"id" : "obj-86"
								}

							}
, 							{
								"box" : 								{
									"maxclass" : "newobj",
									"text" : "+ 4",
									"fontsize" : 12.0,
									"numinlets" : 2,
									"numoutlets" : 1,
									"patching_rect" : [ 717.0, 565.0, 32.5, 20.0 ],
									"outlettype" : [ "int" ],
									"id" : "obj-83",
									"fontname" : "Arial"
								}

							}
, 							{
								"box" : 								{
									"maxclass" : "newobj",
									"text" : "zl group 2",
									"fontsize" : 12.0,
									"color" : [ 0.945098, 0.913725, 0.407843, 1.0 ],
									"numinlets" : 2,
									"numoutlets" : 2,
									"patching_rect" : [ 673.0, 601.0, 63.0, 20.0 ],
									"outlettype" : [ "", "" ],
									"id" : "obj-82",
									"fontname" : "Arial"
								}

							}
, 							{
								"box" : 								{
									"maxclass" : "newobj",
									"text" : "t b b b",
									"fontsize" : 12.0,
									"numinlets" : 1,
									"numoutlets" : 3,
									"patching_rect" : [ 565.0, 674.0, 46.0, 20.0 ],
									"outlettype" : [ "bang", "bang", "bang" ],
									"id" : "obj-81",
									"fontname" : "Arial"
								}

							}
, 							{
								"box" : 								{
									"maxclass" : "message",
									"text" : "0 4",
									"fontsize" : 12.0,
									"numinlets" : 2,
									"numoutlets" : 1,
									"patching_rect" : [ 302.0, 393.0, 50.0, 18.0 ],
									"outlettype" : [ "" ],
									"id" : "obj-67",
									"fontname" : "Arial"
								}

							}
, 							{
								"box" : 								{
									"maxclass" : "newobj",
									"text" : "prepend 0",
									"fontsize" : 12.0,
									"numinlets" : 1,
									"numoutlets" : 1,
									"patching_rect" : [ 302.0, 365.0, 65.0, 20.0 ],
									"outlettype" : [ "" ],
									"id" : "obj-65",
									"fontname" : "Arial"
								}

							}
, 							{
								"box" : 								{
									"maxclass" : "newobj",
									"text" : "sprintf %X",
									"fontsize" : 12.0,
									"numinlets" : 1,
									"numoutlets" : 1,
									"patching_rect" : [ 302.0, 340.0, 65.0, 20.0 ],
									"outlettype" : [ "" ],
									"id" : "obj-62",
									"fontname" : "Arial"
								}

							}
, 							{
								"box" : 								{
									"maxclass" : "message",
									"text" : "16",
									"fontsize" : 12.0,
									"numinlets" : 2,
									"numoutlets" : 1,
									"patching_rect" : [ 538.0, 184.0, 32.5, 18.0 ],
									"outlettype" : [ "" ],
									"id" : "obj-61",
									"fontname" : "Arial"
								}

							}
, 							{
								"box" : 								{
									"maxclass" : "message",
									"text" : "E0",
									"fontsize" : 12.0,
									"numinlets" : 2,
									"numoutlets" : 1,
									"patching_rect" : [ 1249.0, 286.0, 50.0, 18.0 ],
									"outlettype" : [ "" ],
									"id" : "obj-41",
									"fontname" : "Arial"
								}

							}
, 							{
								"box" : 								{
									"maxclass" : "newobj",
									"text" : "sprintf %X",
									"fontsize" : 12.0,
									"numinlets" : 1,
									"numoutlets" : 1,
									"patching_rect" : [ 617.0, 854.0, 65.0, 20.0 ],
									"outlettype" : [ "" ],
									"id" : "obj-39",
									"fontname" : "Arial"
								}

							}
, 							{
								"box" : 								{
									"maxclass" : "newobj",
									"text" : "sprintf 0x%s",
									"fontsize" : 11.0,
									"numinlets" : 1,
									"numoutlets" : 1,
									"patching_rect" : [ 617.0, 799.0, 81.0, 20.0 ],
									"outlettype" : [ "" ],
									"id" : "obj-38",
									"fontname" : "Verdana"
								}

							}
, 							{
								"box" : 								{
									"maxclass" : "newobj",
									"text" : "!- 255",
									"fontsize" : 12.0,
									"numinlets" : 2,
									"numoutlets" : 1,
									"patching_rect" : [ 617.0, 826.0, 41.0, 20.0 ],
									"outlettype" : [ "int" ],
									"id" : "obj-37",
									"fontname" : "Arial"
								}

							}
, 							{
								"box" : 								{
									"maxclass" : "newobj",
									"text" : "sprintf %X",
									"fontsize" : 12.0,
									"numinlets" : 1,
									"numoutlets" : 1,
									"patching_rect" : [ 619.0, 732.0, 65.0, 20.0 ],
									"outlettype" : [ "" ],
									"id" : "obj-17",
									"fontname" : "Arial"
								}

							}
, 							{
								"box" : 								{
									"maxclass" : "newobj",
									"text" : "accum",
									"fontsize" : 12.0,
									"numinlets" : 3,
									"numoutlets" : 1,
									"patching_rect" : [ 619.0, 705.0, 46.0, 20.0 ],
									"outlettype" : [ "int" ],
									"id" : "obj-7",
									"fontname" : "Arial"
								}

							}
, 							{
								"box" : 								{
									"maxclass" : "newobj",
									"text" : "sprintf 0x%s",
									"fontsize" : 11.0,
									"numinlets" : 1,
									"numoutlets" : 1,
									"patching_rect" : [ 633.0, 673.0, 81.0, 20.0 ],
									"outlettype" : [ "" ],
									"id" : "obj-2",
									"fontname" : "Verdana"
								}

							}
, 							{
								"box" : 								{
									"maxclass" : "outlet",
									"numinlets" : 1,
									"numoutlets" : 0,
									"patching_rect" : [ 337.0, 910.0, 25.0, 25.0 ],
									"id" : "obj-92",
									"comment" : ""
								}

							}
, 							{
								"box" : 								{
									"maxclass" : "message",
									"text" : "115 0",
									"fontsize" : 12.0,
									"numinlets" : 2,
									"numoutlets" : 1,
									"patching_rect" : [ 697.0, 461.0, 40.0, 18.0 ],
									"outlettype" : [ "" ],
									"id" : "obj-58",
									"fontname" : "Arial"
								}

							}
, 							{
								"box" : 								{
									"maxclass" : "message",
									"text" : "1 0",
									"fontsize" : 12.0,
									"numinlets" : 2,
									"numoutlets" : 1,
									"patching_rect" : [ 658.0, 461.0, 32.5, 18.0 ],
									"outlettype" : [ "" ],
									"id" : "obj-57",
									"fontname" : "Arial"
								}

							}
, 							{
								"box" : 								{
									"maxclass" : "message",
									"text" : "0 13 A2 0 40 A2 8E 61 FF FE",
									"linecount" : 3,
									"fontsize" : 12.0,
									"numinlets" : 2,
									"numoutlets" : 1,
									"patching_rect" : [ 588.0, 461.0, 66.0, 46.0 ],
									"outlettype" : [ "" ],
									"id" : "obj-54",
									"fontname" : "Arial"
								}

							}
, 							{
								"box" : 								{
									"maxclass" : "newobj",
									"text" : "zl iter 1",
									"fontsize" : 12.0,
									"numinlets" : 2,
									"numoutlets" : 2,
									"patching_rect" : [ 593.0, 535.0, 49.0, 20.0 ],
									"outlettype" : [ "", "" ],
									"id" : "obj-53",
									"fontname" : "Arial"
								}

							}
, 							{
								"box" : 								{
									"maxclass" : "message",
									"text" : "0",
									"fontsize" : 12.0,
									"numinlets" : 2,
									"numoutlets" : 1,
									"patching_rect" : [ 457.0, 393.0, 32.5, 18.0 ],
									"outlettype" : [ "" ],
									"id" : "obj-49",
									"fontname" : "Arial"
								}

							}
, 							{
								"box" : 								{
									"maxclass" : "button",
									"numinlets" : 1,
									"numoutlets" : 1,
									"patching_rect" : [ 169.0, 232.0, 20.0, 20.0 ],
									"outlettype" : [ "bang" ],
									"id" : "obj-47"
								}

							}
, 							{
								"box" : 								{
									"maxclass" : "newobj",
									"text" : "sprintf %X",
									"fontsize" : 12.0,
									"numinlets" : 1,
									"numoutlets" : 1,
									"patching_rect" : [ 169.0, 326.0, 65.0, 20.0 ],
									"outlettype" : [ "" ],
									"id" : "obj-43",
									"fontname" : "Arial"
								}

							}
, 							{
								"box" : 								{
									"maxclass" : "newobj",
									"text" : "counter 255",
									"fontsize" : 12.0,
									"numinlets" : 5,
									"numoutlets" : 4,
									"patching_rect" : [ 169.0, 302.0, 74.0, 20.0 ],
									"outlettype" : [ "int", "", "", "int" ],
									"id" : "obj-36",
									"fontname" : "Arial"
								}

							}
, 							{
								"box" : 								{
									"maxclass" : "message",
									"text" : "8",
									"fontsize" : 12.0,
									"numinlets" : 2,
									"numoutlets" : 1,
									"patching_rect" : [ 383.0, 393.0, 32.5, 18.0 ],
									"outlettype" : [ "" ],
									"id" : "obj-31",
									"fontname" : "Arial"
								}

							}
, 							{
								"box" : 								{
									"maxclass" : "newobj",
									"text" : "zl group 2",
									"fontsize" : 12.0,
									"numinlets" : 2,
									"numoutlets" : 2,
									"patching_rect" : [ 593.0, 562.0, 63.0, 20.0 ],
									"outlettype" : [ "", "" ],
									"id" : "obj-29",
									"fontname" : "Arial"
								}

							}
, 							{
								"box" : 								{
									"maxclass" : "inlet",
									"numinlets" : 0,
									"numoutlets" : 1,
									"patching_rect" : [ 518.0, 12.0, 25.0, 25.0 ],
									"outlettype" : [ "" ],
									"id" : "obj-26",
									"comment" : ""
								}

							}
, 							{
								"box" : 								{
									"maxclass" : "inlet",
									"numinlets" : 0,
									"numoutlets" : 1,
									"patching_rect" : [ 468.0, 12.0, 25.0, 25.0 ],
									"outlettype" : [ "" ],
									"id" : "obj-25",
									"comment" : ""
								}

							}
, 							{
								"box" : 								{
									"maxclass" : "inlet",
									"numinlets" : 0,
									"numoutlets" : 1,
									"patching_rect" : [ 418.0, 12.0, 25.0, 25.0 ],
									"outlettype" : [ "" ],
									"id" : "obj-24",
									"comment" : ""
								}

							}
, 							{
								"box" : 								{
									"maxclass" : "message",
									"text" : "7e",
									"fontsize" : 12.0,
									"numinlets" : 2,
									"numoutlets" : 1,
									"patching_rect" : [ 254.0, 393.0, 32.5, 18.0 ],
									"outlettype" : [ "" ],
									"id" : "obj-15",
									"fontname" : "Arial"
								}

							}
 ],
						"lines" : [ 							{
								"patchline" : 								{
									"source" : [ "obj-151", 5 ],
									"destination" : [ "obj-47", 0 ],
									"hidden" : 0,
									"midpoints" : [  ]
								}

							}
, 							{
								"patchline" : 								{
									"source" : [ "obj-151", 4 ],
									"destination" : [ "obj-15", 0 ],
									"hidden" : 0,
									"midpoints" : [  ]
								}

							}
, 							{
								"patchline" : 								{
									"source" : [ "obj-151", 3 ],
									"destination" : [ "obj-67", 0 ],
									"hidden" : 0,
									"midpoints" : [  ]
								}

							}
, 							{
								"patchline" : 								{
									"source" : [ "obj-151", 2 ],
									"destination" : [ "obj-31", 0 ],
									"hidden" : 0,
									"midpoints" : [  ]
								}

							}
, 							{
								"patchline" : 								{
									"source" : [ "obj-151", 1 ],
									"destination" : [ "obj-49", 0 ],
									"hidden" : 0,
									"midpoints" : [  ]
								}

							}
, 							{
								"patchline" : 								{
									"source" : [ "obj-24", 0 ],
									"destination" : [ "obj-58", 1 ],
									"hidden" : 0,
									"midpoints" : [ 427.5, 52.5, 727.5, 52.5 ]
								}

							}
, 							{
								"patchline" : 								{
									"source" : [ "obj-43", 0 ],
									"destination" : [ "obj-49", 1 ],
									"hidden" : 0,
									"midpoints" : [  ]
								}

							}
, 							{
								"patchline" : 								{
									"source" : [ "obj-83", 0 ],
									"destination" : [ "obj-82", 1 ],
									"hidden" : 0,
									"midpoints" : [  ]
								}

							}
, 							{
								"patchline" : 								{
									"source" : [ "obj-148", 0 ],
									"destination" : [ "obj-82", 0 ],
									"hidden" : 0,
									"midpoints" : [  ]
								}

							}
, 							{
								"patchline" : 								{
									"source" : [ "obj-15", 0 ],
									"destination" : [ "obj-148", 0 ],
									"hidden" : 0,
									"midpoints" : [  ]
								}

							}
, 							{
								"patchline" : 								{
									"source" : [ "obj-67", 0 ],
									"destination" : [ "obj-148", 0 ],
									"hidden" : 0,
									"midpoints" : [  ]
								}

							}
, 							{
								"patchline" : 								{
									"source" : [ "obj-143", 0 ],
									"destination" : [ "obj-2", 0 ],
									"hidden" : 0,
									"midpoints" : [  ]
								}

							}
, 							{
								"patchline" : 								{
									"source" : [ "obj-29", 0 ],
									"destination" : [ "obj-143", 0 ],
									"hidden" : 0,
									"midpoints" : [  ]
								}

							}
, 							{
								"patchline" : 								{
									"source" : [ "obj-29", 0 ],
									"destination" : [ "obj-82", 0 ],
									"hidden" : 0,
									"midpoints" : [  ]
								}

							}
, 							{
								"patchline" : 								{
									"source" : [ "obj-53", 0 ],
									"destination" : [ "obj-29", 0 ],
									"hidden" : 0,
									"midpoints" : [  ]
								}

							}
, 							{
								"patchline" : 								{
									"source" : [ "obj-29", 0 ],
									"destination" : [ "obj-86", 0 ],
									"hidden" : 0,
									"midpoints" : [  ]
								}

							}
, 							{
								"patchline" : 								{
									"source" : [ "obj-81", 0 ],
									"destination" : [ "obj-108", 0 ],
									"hidden" : 0,
									"midpoints" : [  ]
								}

							}
, 							{
								"patchline" : 								{
									"source" : [ "obj-119", 2 ],
									"destination" : [ "obj-38", 0 ],
									"hidden" : 0,
									"midpoints" : [  ]
								}

							}
, 							{
								"patchline" : 								{
									"source" : [ "obj-17", 0 ],
									"destination" : [ "obj-119", 0 ],
									"hidden" : 0,
									"midpoints" : [  ]
								}

							}
, 							{
								"patchline" : 								{
									"source" : [ "obj-81", 2 ],
									"destination" : [ "obj-7", 0 ],
									"hidden" : 0,
									"midpoints" : [  ]
								}

							}
, 							{
								"patchline" : 								{
									"source" : [ "obj-86", 0 ],
									"destination" : [ "obj-81", 0 ],
									"hidden" : 0,
									"midpoints" : [  ]
								}

							}
, 							{
								"patchline" : 								{
									"source" : [ "obj-62", 0 ],
									"destination" : [ "obj-65", 0 ],
									"hidden" : 0,
									"midpoints" : [  ]
								}

							}
, 							{
								"patchline" : 								{
									"source" : [ "obj-65", 0 ],
									"destination" : [ "obj-67", 1 ],
									"hidden" : 0,
									"midpoints" : [  ]
								}

							}
, 							{
								"patchline" : 								{
									"source" : [ "obj-49", 0 ],
									"destination" : [ "obj-53", 0 ],
									"hidden" : 0,
									"midpoints" : [  ]
								}

							}
, 							{
								"patchline" : 								{
									"source" : [ "obj-31", 0 ],
									"destination" : [ "obj-53", 0 ],
									"hidden" : 0,
									"midpoints" : [  ]
								}

							}
, 							{
								"patchline" : 								{
									"source" : [ "obj-37", 0 ],
									"destination" : [ "obj-39", 0 ],
									"hidden" : 0,
									"midpoints" : [  ]
								}

							}
, 							{
								"patchline" : 								{
									"source" : [ "obj-38", 0 ],
									"destination" : [ "obj-37", 0 ],
									"hidden" : 0,
									"midpoints" : [  ]
								}

							}
, 							{
								"patchline" : 								{
									"source" : [ "obj-7", 0 ],
									"destination" : [ "obj-17", 0 ],
									"hidden" : 0,
									"midpoints" : [  ]
								}

							}
, 							{
								"patchline" : 								{
									"source" : [ "obj-2", 0 ],
									"destination" : [ "obj-7", 1 ],
									"hidden" : 0,
									"midpoints" : [  ]
								}

							}
, 							{
								"patchline" : 								{
									"source" : [ "obj-58", 0 ],
									"destination" : [ "obj-53", 0 ],
									"hidden" : 0,
									"midpoints" : [  ]
								}

							}
, 							{
								"patchline" : 								{
									"source" : [ "obj-57", 0 ],
									"destination" : [ "obj-53", 0 ],
									"hidden" : 0,
									"midpoints" : [  ]
								}

							}
, 							{
								"patchline" : 								{
									"source" : [ "obj-54", 0 ],
									"destination" : [ "obj-53", 0 ],
									"hidden" : 0,
									"midpoints" : [  ]
								}

							}
, 							{
								"patchline" : 								{
									"source" : [ "obj-47", 0 ],
									"destination" : [ "obj-36", 0 ],
									"hidden" : 0,
									"midpoints" : [  ]
								}

							}
, 							{
								"patchline" : 								{
									"source" : [ "obj-36", 0 ],
									"destination" : [ "obj-43", 0 ],
									"hidden" : 0,
									"midpoints" : [  ]
								}

							}
, 							{
								"patchline" : 								{
									"source" : [ "obj-5", 0 ],
									"destination" : [ "obj-175", 0 ],
									"hidden" : 0,
									"midpoints" : [  ]
								}

							}
, 							{
								"patchline" : 								{
									"source" : [ "obj-175", 0 ],
									"destination" : [ "obj-92", 0 ],
									"hidden" : 0,
									"midpoints" : [  ]
								}

							}
, 							{
								"patchline" : 								{
									"source" : [ "obj-82", 0 ],
									"destination" : [ "obj-5", 0 ],
									"hidden" : 0,
									"midpoints" : [  ]
								}

							}
, 							{
								"patchline" : 								{
									"source" : [ "obj-61", 0 ],
									"destination" : [ "obj-8", 0 ],
									"hidden" : 0,
									"midpoints" : [  ]
								}

							}
, 							{
								"patchline" : 								{
									"source" : [ "obj-164", 0 ],
									"destination" : [ "obj-8", 0 ],
									"hidden" : 0,
									"midpoints" : [  ]
								}

							}
, 							{
								"patchline" : 								{
									"source" : [ "obj-9", 0 ],
									"destination" : [ "obj-29", 1 ],
									"hidden" : 0,
									"midpoints" : [  ]
								}

							}
, 							{
								"patchline" : 								{
									"source" : [ "obj-9", 0 ],
									"destination" : [ "obj-83", 0 ],
									"hidden" : 0,
									"midpoints" : [  ]
								}

							}
, 							{
								"patchline" : 								{
									"source" : [ "obj-24", 0 ],
									"destination" : [ "obj-10", 0 ],
									"hidden" : 0,
									"midpoints" : [  ]
								}

							}
, 							{
								"patchline" : 								{
									"source" : [ "obj-10", 2 ],
									"destination" : [ "obj-61", 0 ],
									"hidden" : 0,
									"midpoints" : [  ]
								}

							}
, 							{
								"patchline" : 								{
									"source" : [ "obj-11", 0 ],
									"destination" : [ "obj-62", 0 ],
									"hidden" : 0,
									"midpoints" : [  ]
								}

							}
, 							{
								"patchline" : 								{
									"source" : [ "obj-10", 1 ],
									"destination" : [ "obj-151", 0 ],
									"hidden" : 0,
									"midpoints" : [  ]
								}

							}
, 							{
								"patchline" : 								{
									"source" : [ "obj-25", 0 ],
									"destination" : [ "obj-14", 0 ],
									"hidden" : 0,
									"midpoints" : [  ]
								}

							}
, 							{
								"patchline" : 								{
									"source" : [ "obj-14", 1 ],
									"destination" : [ "obj-151", 0 ],
									"hidden" : 0,
									"midpoints" : [  ]
								}

							}
, 							{
								"patchline" : 								{
									"source" : [ "obj-14", 2 ],
									"destination" : [ "obj-164", 0 ],
									"hidden" : 0,
									"midpoints" : [  ]
								}

							}
, 							{
								"patchline" : 								{
									"source" : [ "obj-25", 0 ],
									"destination" : [ "obj-16", 1 ],
									"hidden" : 0,
									"midpoints" : [ 477.5, 61.5, 913.5, 61.5 ]
								}

							}
, 							{
								"patchline" : 								{
									"source" : [ "obj-14", 0 ],
									"destination" : [ "obj-16", 0 ],
									"hidden" : 0,
									"midpoints" : [  ]
								}

							}
, 							{
								"patchline" : 								{
									"source" : [ "obj-16", 0 ],
									"destination" : [ "obj-53", 0 ],
									"hidden" : 0,
									"midpoints" : [  ]
								}

							}
, 							{
								"patchline" : 								{
									"source" : [ "obj-19", 0 ],
									"destination" : [ "obj-20", 0 ],
									"hidden" : 0,
									"midpoints" : [  ]
								}

							}
, 							{
								"patchline" : 								{
									"source" : [ "obj-164", 0 ],
									"destination" : [ "obj-19", 0 ],
									"hidden" : 0,
									"midpoints" : [  ]
								}

							}
, 							{
								"patchline" : 								{
									"source" : [ "obj-61", 0 ],
									"destination" : [ "obj-21", 0 ],
									"hidden" : 0,
									"midpoints" : [  ]
								}

							}
, 							{
								"patchline" : 								{
									"source" : [ "obj-21", 0 ],
									"destination" : [ "obj-20", 0 ],
									"hidden" : 0,
									"midpoints" : [  ]
								}

							}
, 							{
								"patchline" : 								{
									"source" : [ "obj-22", 0 ],
									"destination" : [ "obj-31", 1 ],
									"hidden" : 0,
									"midpoints" : [  ]
								}

							}
, 							{
								"patchline" : 								{
									"source" : [ "obj-40", 0 ],
									"destination" : [ "obj-41", 0 ],
									"hidden" : 0,
									"midpoints" : [  ]
								}

							}
, 							{
								"patchline" : 								{
									"source" : [ "obj-39", 0 ],
									"destination" : [ "obj-35", 0 ],
									"hidden" : 0,
									"midpoints" : [  ]
								}

							}
, 							{
								"patchline" : 								{
									"source" : [ "obj-42", 0 ],
									"destination" : [ "obj-41", 1 ],
									"hidden" : 0,
									"midpoints" : [  ]
								}

							}
, 							{
								"patchline" : 								{
									"source" : [ "obj-108", 0 ],
									"destination" : [ "obj-7", 0 ],
									"hidden" : 0,
									"midpoints" : [  ]
								}

							}
, 							{
								"patchline" : 								{
									"source" : [ "obj-81", 1 ],
									"destination" : [ "obj-45", 0 ],
									"hidden" : 0,
									"midpoints" : [  ]
								}

							}
, 							{
								"patchline" : 								{
									"source" : [ "obj-41", 0 ],
									"destination" : [ "obj-82", 0 ],
									"hidden" : 0,
									"midpoints" : [  ]
								}

							}
, 							{
								"patchline" : 								{
									"source" : [ "obj-26", 0 ],
									"destination" : [ "obj-48", 1 ],
									"hidden" : 0,
									"midpoints" : [ 527.5, 71.5, 1175.5, 71.5 ]
								}

							}
, 							{
								"patchline" : 								{
									"source" : [ "obj-169", 0 ],
									"destination" : [ "obj-8", 0 ],
									"hidden" : 0,
									"midpoints" : [  ]
								}

							}
, 							{
								"patchline" : 								{
									"source" : [ "obj-52", 0 ],
									"destination" : [ "obj-20", 0 ],
									"hidden" : 0,
									"midpoints" : [  ]
								}

							}
, 							{
								"patchline" : 								{
									"source" : [ "obj-26", 0 ],
									"destination" : [ "obj-60", 0 ],
									"hidden" : 0,
									"midpoints" : [  ]
								}

							}
, 							{
								"patchline" : 								{
									"source" : [ "obj-60", 1 ],
									"destination" : [ "obj-151", 0 ],
									"hidden" : 0,
									"midpoints" : [  ]
								}

							}
, 							{
								"patchline" : 								{
									"source" : [ "obj-10", 0 ],
									"destination" : [ "obj-152", 0 ],
									"hidden" : 0,
									"midpoints" : [  ]
								}

							}
, 							{
								"patchline" : 								{
									"source" : [ "obj-152", 2 ],
									"destination" : [ "obj-54", 0 ],
									"hidden" : 0,
									"midpoints" : [  ]
								}

							}
, 							{
								"patchline" : 								{
									"source" : [ "obj-152", 1 ],
									"destination" : [ "obj-57", 0 ],
									"hidden" : 0,
									"midpoints" : [  ]
								}

							}
, 							{
								"patchline" : 								{
									"source" : [ "obj-152", 0 ],
									"destination" : [ "obj-58", 0 ],
									"hidden" : 0,
									"midpoints" : [  ]
								}

							}
, 							{
								"patchline" : 								{
									"source" : [ "obj-72", 0 ],
									"destination" : [ "obj-54", 1 ],
									"hidden" : 0,
									"midpoints" : [  ]
								}

							}
, 							{
								"patchline" : 								{
									"source" : [ "obj-72", 0 ],
									"destination" : [ "obj-69", 1 ],
									"hidden" : 0,
									"midpoints" : [  ]
								}

							}
, 							{
								"patchline" : 								{
									"source" : [ "obj-64", 0 ],
									"destination" : [ "obj-48", 0 ],
									"hidden" : 0,
									"midpoints" : [  ]
								}

							}
, 							{
								"patchline" : 								{
									"source" : [ "obj-64", 1 ],
									"destination" : [ "obj-68", 0 ],
									"hidden" : 0,
									"midpoints" : [  ]
								}

							}
, 							{
								"patchline" : 								{
									"source" : [ "obj-64", 2 ],
									"destination" : [ "obj-69", 0 ],
									"hidden" : 0,
									"midpoints" : [  ]
								}

							}
, 							{
								"patchline" : 								{
									"source" : [ "obj-60", 0 ],
									"destination" : [ "obj-64", 0 ],
									"hidden" : 0,
									"midpoints" : [  ]
								}

							}
, 							{
								"patchline" : 								{
									"source" : [ "obj-60", 2 ],
									"destination" : [ "obj-169", 0 ],
									"hidden" : 0,
									"midpoints" : [  ]
								}

							}
, 							{
								"patchline" : 								{
									"source" : [ "obj-169", 0 ],
									"destination" : [ "obj-52", 0 ],
									"hidden" : 0,
									"midpoints" : [  ]
								}

							}
, 							{
								"patchline" : 								{
									"source" : [ "obj-69", 0 ],
									"destination" : [ "obj-53", 0 ],
									"hidden" : 0,
									"midpoints" : [  ]
								}

							}
, 							{
								"patchline" : 								{
									"source" : [ "obj-68", 0 ],
									"destination" : [ "obj-53", 0 ],
									"hidden" : 0,
									"midpoints" : [  ]
								}

							}
, 							{
								"patchline" : 								{
									"source" : [ "obj-48", 0 ],
									"destination" : [ "obj-53", 0 ],
									"hidden" : 0,
									"midpoints" : [  ]
								}

							}
, 							{
								"patchline" : 								{
									"source" : [ "obj-84", 0 ],
									"destination" : [ "obj-36", 3 ],
									"hidden" : 0,
									"midpoints" : [  ]
								}

							}
, 							{
								"patchline" : 								{
									"source" : [ "obj-49", 0 ],
									"destination" : [ "obj-1", 0 ],
									"hidden" : 0,
									"midpoints" : [  ]
								}

							}
 ]
					}
,
					"saved_object_attributes" : 					{
						"globalpatchername" : "",
						"fontface" : 0,
						"fontsize" : 12.0,
						"default_fontface" : 0,
						"default_fontname" : "Arial",
						"fontname" : "Arial",
						"default_fontsize" : 12.0
					}

				}

			}
, 			{
				"box" : 				{
					"maxclass" : "button",
					"numinlets" : 1,
					"numoutlets" : 1,
					"patching_rect" : [ 178.0, 219.0, 20.0, 20.0 ],
					"outlettype" : [ "bang" ],
					"id" : "obj-34"
				}

			}
, 			{
				"box" : 				{
					"maxclass" : "toggle",
					"numinlets" : 1,
					"numoutlets" : 1,
					"patching_rect" : [ 212.0, 165.0, 23.0, 23.0 ],
					"outlettype" : [ "int" ],
					"id" : "obj-137"
				}

			}
, 			{
				"box" : 				{
					"maxclass" : "newobj",
					"text" : "metro 20",
					"fontsize" : 9.0,
					"numinlets" : 2,
					"numoutlets" : 1,
					"patching_rect" : [ 212.0, 191.0, 46.0, 17.0 ],
					"outlettype" : [ "bang" ],
					"id" : "obj-138",
					"fontname" : "Arial"
				}

			}
, 			{
				"box" : 				{
					"maxclass" : "message",
					"text" : "print",
					"fontsize" : 9.0,
					"numinlets" : 2,
					"numoutlets" : 1,
					"patching_rect" : [ 223.0, 252.0, 37.0, 15.0 ],
					"outlettype" : [ "" ],
					"id" : "obj-152",
					"fontname" : "Arial"
				}

			}
, 			{
				"box" : 				{
					"maxclass" : "button",
					"numinlets" : 1,
					"numoutlets" : 1,
					"patching_rect" : [ 222.0, 222.0, 15.0, 15.0 ],
					"outlettype" : [ "bang" ],
					"id" : "obj-153"
				}

			}
, 			{
				"box" : 				{
					"maxclass" : "comment",
					"text" : "bang will cause received characters to be printed in Max window, and a count of read characters to be sent from the right outlet, prepended by 'read'",
					"linecount" : 2,
					"fontsize" : 9.0,
					"numinlets" : 1,
					"numoutlets" : 0,
					"patching_rect" : [ 241.0, 216.0, 358.0, 27.0 ],
					"id" : "obj-154",
					"fontname" : "Arial"
				}

			}
, 			{
				"box" : 				{
					"maxclass" : "newobj",
					"text" : "serial g 57600 8 1 0",
					"fontsize" : 9.0,
					"color" : [ 1.0, 0.890196, 0.090196, 1.0 ],
					"numinlets" : 1,
					"numoutlets" : 2,
					"patching_rect" : [ 212.0, 306.0, 90.0, 17.0 ],
					"outlettype" : [ "int", "" ],
					"id" : "obj-155",
					"fontname" : "Arial"
				}

			}
, 			{
				"box" : 				{
					"maxclass" : "comment",
					"text" : "To write data to a serial port, the serial object accepts either a list of numbers or individual characters. To read data, send a bang to the serial object.",
					"linecount" : 2,
					"fontsize" : 9.0,
					"numinlets" : 1,
					"numoutlets" : 0,
					"patching_rect" : [ 268.0, 176.0, 394.0, 27.0 ],
					"id" : "obj-156",
					"fontname" : "Arial"
				}

			}
, 			{
				"box" : 				{
					"maxclass" : "comment",
					"text" : "'print' will send a list of available ports from the right outlet, preceded by the symbols 'port'. A port/port letter combination will also be displayed in the Max window",
					"linecount" : 2,
					"fontsize" : 9.0,
					"numinlets" : 1,
					"numoutlets" : 0,
					"patching_rect" : [ 262.0, 248.0, 525.0, 27.0 ],
					"id" : "obj-157",
					"fontname" : "Arial"
				}

			}
 ],
		"lines" : [ 			{
				"patchline" : 				{
					"source" : [ "obj-27", 0 ],
					"destination" : [ "obj-137", 0 ],
					"hidden" : 0,
					"midpoints" : [  ]
				}

			}
, 			{
				"patchline" : 				{
					"source" : [ "obj-153", 0 ],
					"destination" : [ "obj-155", 0 ],
					"hidden" : 0,
					"midpoints" : [ 231.0, 241.0, 221.5, 241.0 ]
				}

			}
, 			{
				"patchline" : 				{
					"source" : [ "obj-152", 0 ],
					"destination" : [ "obj-155", 0 ],
					"hidden" : 0,
					"midpoints" : [ 232.5, 272.0, 221.5, 272.0 ]
				}

			}
, 			{
				"patchline" : 				{
					"source" : [ "obj-34", 0 ],
					"destination" : [ "obj-155", 0 ],
					"hidden" : 0,
					"midpoints" : [  ]
				}

			}
, 			{
				"patchline" : 				{
					"source" : [ "obj-39", 0 ],
					"destination" : [ "obj-155", 0 ],
					"hidden" : 0,
					"midpoints" : [  ]
				}

			}
, 			{
				"patchline" : 				{
					"source" : [ "obj-138", 0 ],
					"destination" : [ "obj-155", 0 ],
					"hidden" : 0,
					"midpoints" : [  ]
				}

			}
, 			{
				"patchline" : 				{
					"source" : [ "obj-137", 0 ],
					"destination" : [ "obj-138", 0 ],
					"hidden" : 0,
					"midpoints" : [  ]
				}

			}
, 			{
				"patchline" : 				{
					"source" : [ "obj-138", 0 ],
					"destination" : [ "obj-34", 0 ],
					"hidden" : 0,
					"midpoints" : [  ]
				}

			}
, 			{
				"patchline" : 				{
					"source" : [ "obj-2", 0 ],
					"destination" : [ "obj-39", 0 ],
					"hidden" : 0,
					"midpoints" : [  ]
				}

			}
, 			{
				"patchline" : 				{
					"source" : [ "obj-3", 0 ],
					"destination" : [ "obj-39", 1 ],
					"hidden" : 0,
					"midpoints" : [  ]
				}

			}
, 			{
				"patchline" : 				{
					"source" : [ "obj-11", 0 ],
					"destination" : [ "obj-39", 2 ],
					"hidden" : 0,
					"midpoints" : [  ]
				}

			}
, 			{
				"patchline" : 				{
					"source" : [ "obj-155", 0 ],
					"destination" : [ "obj-18", 0 ],
					"hidden" : 0,
					"midpoints" : [  ]
				}

			}
, 			{
				"patchline" : 				{
					"source" : [ "obj-17", 0 ],
					"destination" : [ "obj-75", 0 ],
					"hidden" : 0,
					"midpoints" : [  ]
				}

			}
, 			{
				"patchline" : 				{
					"source" : [ "obj-23", 0 ],
					"destination" : [ "obj-76", 0 ],
					"hidden" : 0,
					"midpoints" : [  ]
				}

			}
, 			{
				"patchline" : 				{
					"source" : [ "obj-25", 0 ],
					"destination" : [ "obj-23", 0 ],
					"hidden" : 0,
					"midpoints" : [  ]
				}

			}
, 			{
				"patchline" : 				{
					"source" : [ "obj-75", 0 ],
					"destination" : [ "obj-20", 0 ],
					"hidden" : 0,
					"midpoints" : [  ]
				}

			}
, 			{
				"patchline" : 				{
					"source" : [ "obj-20", 0 ],
					"destination" : [ "obj-155", 0 ],
					"hidden" : 0,
					"midpoints" : [  ]
				}

			}
 ]
	}

}
